<?xml version="1.0" encoding="utf-8"?>
<!-- Generator: Adobe Illustrator 16.0.4, SVG Export Plug-In . SVG Version: 6.00 Build 0)  -->
<!DOCTYPE svg PUBLIC "-//W3C//DTD SVG 1.1//EN" "http://www.w3.org/Graphics/SVG/1.1/DTD/svg11.dtd">
<svg version="1.1" id="Warstwa_1" xmlns="http://www.w3.org/2000/svg" xmlns:xlink="http://www.w3.org/1999/xlink" x="0px" y="0px"
	 width="134.5px" height="156.667px" viewBox="0 0 134.5 156.667" enable-background="new 0 0 134.5 156.667" xml:space="preserve">
<path fill="#FFFFFF" d="M79.833,23.359v-8.193h9V0H45.667v15.167h8.666v8.252c-6.985,1.36-13.583,3.797-19.615,7.138l-5.094-6.641
	l-9.5,6.75l4.865,6.45C9.751,49.446,0,68.289,0,89.417c0,37.142,30.108,67.25,67.25,67.25s67.25-30.108,67.25-67.25
	C134.5,56.578,110.957,29.253,79.833,23.359z M67.25,147.417c-32.032,0-58-25.967-58-58c0-32.032,25.968-58,58-58
	c32.033,0,58,25.968,58,58C125.25,121.45,99.283,147.417,67.25,147.417z"/>
</svg>
