<?xml version="1.0" encoding="utf-8"?>
<!-- Generator: Adobe Illustrator 16.0.4, SVG Export Plug-In . SVG Version: 6.00 Build 0)  -->
<!DOCTYPE svg PUBLIC "-//W3C//DTD SVG 1.1//EN" "http://www.w3.org/Graphics/SVG/1.1/DTD/svg11.dtd">
<svg version="1.1" id="Warstwa_1" xmlns="http://www.w3.org/2000/svg" xmlns:xlink="http://www.w3.org/1999/xlink" x="0px" y="0px"
	 width="134.5px" height="156.667px" viewBox="0 0 134.5 156.667" enable-background="new 0 0 134.5 156.667" xml:space="preserve">
<g>
	<path fill="#FFFFFF" d="M79.833,20.068v-4.901c0,0,3.885,0,4.76,0s1.24-1.231,1.24-1.231l2.483-12.729c0,0,0.276-1.207-1.036-1.207
		S48.124,0,47.062,0s-1.157,1.269-1.157,1.269l2.398,12.85c0,0,0.509,1.048,1.384,1.048s4.646,0,4.646,0v4.961
		c-6.985,1.36-13.583,3.797-19.615,7.138l-1.273-1.661l-2.88-3.754c0,0-0.985-1.194-2.136-0.376s-6.082,4.334-7.026,4.993
		s-0.347,2.144-0.347,2.144l2.651,3.514l1.282,1.7C9.751,46.154,0,64.997,0,86.125c0,37.142,30.108,67.25,67.25,67.25
		s67.25-30.108,67.25-67.25C134.5,53.287,110.957,25.962,79.833,20.068z M67.25,146.75c-33.563,0-60.771-27.208-60.771-60.771
		c0-33.563,27.208-60.771,60.771-60.771c33.562,0,60.771,27.208,60.771,60.771C128.021,119.542,100.812,146.75,67.25,146.75z"/>
</g>
</svg>
