<?xml version="1.0" encoding="utf-8"?>
<!-- Generator: Adobe Illustrator 16.0.4, SVG Export Plug-In . SVG Version: 6.00 Build 0)  -->
<!DOCTYPE svg PUBLIC "-//W3C//DTD SVG 1.1//EN" "http://www.w3.org/Graphics/SVG/1.1/DTD/svg11.dtd">
<svg version="1.1" id="Warstwa_1" xmlns="http://www.w3.org/2000/svg" xmlns:xlink="http://www.w3.org/1999/xlink" x="0px" y="0px"
	 width="200px" height="50.924px" viewBox="0 0 200 50.924" enable-background="new 0 0 200 50.924" xml:space="preserve">
<g>
	<path d="M72.727,31.481c0.275,0.522,0.638,0.95,1.089,1.277c0.453,0.325,0.984,0.567,1.597,0.727
		c0.608,0.157,1.241,0.236,1.894,0.236c0.441,0,0.915-0.036,1.421-0.11c0.506-0.075,0.979-0.215,1.42-0.428
		c0.442-0.21,0.812-0.499,1.105-0.867c0.295-0.367,0.442-0.835,0.442-1.406c0-0.61-0.196-1.104-0.584-1.483
		c-0.391-0.379-0.901-0.695-1.531-0.946c-0.632-0.253-1.35-0.474-2.146-0.663c-0.802-0.191-1.613-0.401-2.433-0.633
		c-0.841-0.211-1.663-0.468-2.465-0.773c-0.797-0.305-1.513-0.697-2.146-1.185c-0.63-0.482-1.144-1.09-1.531-1.813
		c-0.388-0.727-0.583-1.605-0.583-2.637c0-1.158,0.246-2.163,0.739-3.017c0.496-0.853,1.144-1.562,1.942-2.133
		c0.803-0.565,1.707-0.986,2.717-1.261c1.009-0.272,2.021-0.408,3.029-0.408c1.182,0,2.312,0.128,3.397,0.393
		c1.084,0.265,2.044,0.691,2.887,1.276c0.844,0.592,1.511,1.345,2.005,2.262c0.493,0.915,0.742,2.025,0.742,3.33h-4.797
		c-0.044-0.673-0.185-1.233-0.427-1.675c-0.244-0.442-0.565-0.789-0.967-1.041c-0.398-0.254-0.854-0.432-1.371-0.537
		c-0.515-0.105-1.08-0.159-1.691-0.159c-0.398,0-0.797,0.043-1.197,0.128c-0.4,0.082-0.765,0.232-1.089,0.442
		c-0.329,0.211-0.597,0.473-0.807,0.789c-0.212,0.316-0.313,0.717-0.313,1.199c0,0.442,0.082,0.803,0.252,1.074
		c0.169,0.272,0.498,0.524,0.993,0.756c0.496,0.233,1.18,0.465,2.054,0.696s2.015,0.526,3.426,0.884
		c0.418,0.085,1.004,0.235,1.752,0.457c0.747,0.221,1.487,0.573,2.225,1.059c0.738,0.486,1.376,1.133,1.909,1.94
		c0.54,0.812,0.808,1.851,0.808,3.111c0,1.03-0.2,1.989-0.602,2.873c-0.397,0.884-0.992,1.646-1.783,2.289
		c-0.789,0.642-1.769,1.141-2.935,1.5c-1.169,0.357-2.523,0.536-4.06,0.536c-1.241,0-2.446-0.153-3.613-0.457
		c-1.169-0.304-2.199-0.782-3.093-1.435c-0.897-0.652-1.609-1.486-2.133-2.497c-0.527-1.008-0.781-2.211-0.759-3.599h4.798
		C72.315,30.311,72.454,30.952,72.727,31.481z"/>
	<path d="M94.986,41.897c-0.865,0.571-2.063,0.854-3.6,0.854c-0.464,0-0.921-0.018-1.373-0.047c-0.453-0.032-0.91-0.07-1.375-0.112
		v-3.694c0.423,0.045,0.854,0.085,1.296,0.128c0.442,0.04,0.884,0.051,1.326,0.029c0.587-0.062,1.024-0.293,1.31-0.692
		c0.284-0.401,0.427-0.844,0.427-1.326c0-0.357-0.063-0.695-0.191-1.01l-5.712-15.314h4.765l3.695,11.177h0.063l3.568-11.177h4.643
		l-6.82,18.343C96.523,40.382,95.85,41.33,94.986,41.897z"/>
	<path d="M109.702,20.713v2.212h0.062c0.589-0.842,1.299-1.496,2.132-1.958c0.831-0.462,1.782-0.696,2.858-0.696
		c1.026,0,1.972,0.2,2.822,0.599c0.854,0.4,1.5,1.104,1.942,2.118c0.484-0.715,1.142-1.347,1.975-1.897
		c0.828-0.544,1.816-0.819,2.952-0.819c0.862,0,1.661,0.105,2.398,0.315c0.736,0.212,1.367,0.548,1.895,1.011
		c0.526,0.465,0.938,1.068,1.23,1.816c0.295,0.745,0.441,1.648,0.441,2.698v10.926h-4.479v-9.251c0-0.549-0.023-1.063-0.064-1.548
		c-0.044-0.484-0.157-0.903-0.349-1.263c-0.188-0.356-0.469-0.644-0.837-0.854c-0.37-0.211-0.867-0.313-1.5-0.313
		c-0.632,0-1.142,0.118-1.53,0.36c-0.392,0.244-0.695,0.561-0.916,0.949c-0.222,0.39-0.37,0.831-0.442,1.326
		c-0.074,0.493-0.11,0.993-0.11,1.499v9.094h-4.484v-9.158c0-0.482-0.009-0.96-0.029-1.435c-0.021-0.476-0.113-0.911-0.269-1.309
		c-0.159-0.402-0.421-0.723-0.79-0.967c-0.37-0.242-0.91-0.36-1.626-0.36c-0.208,0-0.489,0.046-0.835,0.139
		c-0.352,0.098-0.685,0.274-1.014,0.54c-0.323,0.262-0.604,0.642-0.836,1.135c-0.233,0.493-0.346,1.142-0.346,1.942v9.473h-4.487
		V20.713H109.702z"/>
	<path d="M138.746,33.12c0.674,0.652,1.645,0.979,2.907,0.979c0.903,0,1.683-0.223,2.335-0.678c0.652-0.453,1.053-0.933,1.199-1.437
		h3.946c-0.629,1.957-1.601,3.355-2.905,4.197c-1.305,0.844-2.884,1.265-4.732,1.265c-1.286,0-2.444-0.206-3.475-0.616
		c-1.033-0.41-1.907-0.995-2.621-1.754c-0.716-0.756-1.269-1.662-1.66-2.712c-0.387-1.054-0.58-2.212-0.58-3.475
		c0-1.222,0.198-2.358,0.6-3.411c0.397-1.052,0.967-1.961,1.702-2.729c0.737-0.771,1.617-1.374,2.638-1.816
		c1.022-0.441,2.152-0.663,3.396-0.663c1.388,0,2.597,0.271,3.627,0.805c1.033,0.539,1.881,1.259,2.545,2.163
		c0.662,0.904,1.141,1.938,1.437,3.094c0.295,1.158,0.397,2.37,0.316,3.634h-11.78C137.706,31.413,138.074,32.468,138.746,33.12z
		 M143.814,24.534c-0.535-0.592-1.352-0.885-2.446-0.885c-0.716,0-1.312,0.12-1.785,0.361c-0.472,0.245-0.853,0.542-1.135,0.903
		c-0.285,0.357-0.484,0.733-0.602,1.136c-0.114,0.401-0.185,0.754-0.206,1.073h7.296C144.727,25.985,144.353,25.125,143.814,24.534z
		"/>
	<path d="M161.04,20.713v2.999h-3.284v8.082c0,0.759,0.123,1.265,0.377,1.518c0.252,0.251,0.758,0.38,1.513,0.38
		c0.255,0,0.497-0.011,0.731-0.033c0.231-0.021,0.452-0.052,0.663-0.096v3.475c-0.381,0.062-0.802,0.104-1.265,0.125
		c-0.464,0.021-0.916,0.034-1.356,0.034c-0.696,0-1.355-0.049-1.974-0.145c-0.623-0.094-1.169-0.278-1.646-0.553
		c-0.472-0.273-0.848-0.663-1.12-1.169c-0.271-0.503-0.41-1.167-0.41-1.989v-9.629h-2.714v-2.999h2.714v-4.896h4.486v4.896H161.04z"
		/>
	<path d="M167.447,20.713v3.031h0.062c0.211-0.506,0.495-0.973,0.853-1.405c0.361-0.432,0.77-0.802,1.234-1.104
		c0.461-0.306,0.955-0.543,1.481-0.71c0.527-0.169,1.075-0.254,1.643-0.254c0.294,0,0.621,0.055,0.98,0.156v4.169
		c-0.213-0.043-0.466-0.079-0.759-0.108c-0.296-0.034-0.58-0.049-0.854-0.049c-0.818,0-1.516,0.136-2.081,0.41
		c-0.569,0.276-1.026,0.646-1.377,1.12c-0.344,0.476-0.593,1.026-0.739,1.657c-0.149,0.634-0.222,1.315-0.222,2.054v7.357h-4.484
		V20.713H167.447z"/>
	<path d="M175.594,18.187v-3.694h4.482v3.694H175.594z M180.076,20.713v16.324h-4.482V20.713H180.076z"/>
	<path d="M183.708,25.34c0.399-1.063,0.965-1.969,1.704-2.719c0.735-0.745,1.619-1.325,2.65-1.736
		c1.033-0.409,2.189-0.614,3.475-0.614c1.284,0,2.444,0.205,3.487,0.614c1.044,0.411,1.935,0.991,2.668,1.736
		c0.737,0.75,1.305,1.655,1.706,2.719C199.8,26.402,200,27.586,200,28.891s-0.2,2.482-0.602,3.536
		c-0.401,1.053-0.969,1.953-1.706,2.697c-0.733,0.75-1.624,1.324-2.668,1.722c-1.043,0.401-2.203,0.602-3.487,0.602
		c-1.285,0-2.441-0.2-3.475-0.602c-1.031-0.397-1.915-0.972-2.65-1.722c-0.739-0.744-1.305-1.645-1.704-2.697
		c-0.402-1.054-0.602-2.231-0.602-3.536S183.306,26.402,183.708,25.34z M187.779,30.8c0.126,0.622,0.343,1.179,0.648,1.674
		c0.302,0.495,0.708,0.889,1.214,1.185c0.508,0.295,1.139,0.441,1.896,0.441c0.759,0,1.395-0.146,1.911-0.441
		c0.514-0.296,0.924-0.689,1.23-1.185c0.306-0.495,0.522-1.052,0.647-1.674c0.126-0.619,0.188-1.257,0.188-1.909
		s-0.062-1.294-0.188-1.928c-0.125-0.631-0.342-1.186-0.647-1.672c-0.307-0.485-0.717-0.878-1.23-1.185
		c-0.517-0.303-1.152-0.457-1.911-0.457c-0.757,0-1.388,0.154-1.896,0.457c-0.506,0.307-0.912,0.699-1.214,1.185
		c-0.306,0.486-0.522,1.041-0.648,1.672c-0.125,0.634-0.187,1.275-0.187,1.928S187.654,30.181,187.779,30.8z"/>
</g>
<g>
	<path fill="#52B26E" d="M1.958,50.518l11.78-12.102h-3.722V12.511h16.757v4.116H14.389v6.858h8.651v3.891h-8.651v6.926h3.353
		l10.145-10.418v-0.332h0.339l6.727-6.909l-3.594-0.018v-4.114h7.598L49.984,1.182C49.328,0.46,48.392,0,47.34,0H3.587
		C1.604,0,0,1.605,0,3.587V47.34C0,49.759,2.192,50.639,1.958,50.518z"/>
</g>
<g>
	<polygon fill="#139F4E" points="36.579,16.64 34.994,16.64 28.249,23.567 36.579,23.567 	"/>
	<path fill="#139F4E" d="M50.025,1.18L38.997,12.508h1.955v25.906H24.194v-4.116h12.385v-6.858h-8.651v-3.559L17.783,34.3h1.827
		v4.114h-5.83L1.999,50.516c0.491,0.253,1.038,0.408,1.629,0.408h43.753c1.979,0,3.587-1.604,3.587-3.586V3.584
		C50.968,2.654,50.605,1.817,50.025,1.18z"/>
</g>
</svg>
